<svg width="32" height="32" viewBox="0 0 32 32" fill="none" xmlns="http://www.w3.org/2000/svg">
<path fill-rule="evenodd" clip-rule="evenodd" d="M18.08 1.67363C18.4048 1.77577 18.6886 1.97888 18.89 2.2534C19.0914 2.52791 19.2001 2.85953 19.2 3.20003V11.2H25.6C25.8927 11.1999 26.1798 11.28 26.4301 11.4317C26.6804 11.5834 26.8842 11.8009 27.0195 12.0604C27.1548 12.3199 27.2163 12.6116 27.1974 12.9037C27.1784 13.1957 27.0797 13.477 26.912 13.7168L15.712 29.7168C15.5171 29.9961 15.2382 30.2059 14.9158 30.3156C14.5934 30.4254 14.2444 30.4295 13.9195 30.3272C13.5947 30.2249 13.311 30.0217 13.1096 29.747C12.9083 29.4723 12.7998 29.1406 12.8 28.8V20.8H6.40003C6.10736 20.8002 5.82026 20.72 5.56998 20.5683C5.31969 20.4166 5.11581 20.1992 4.98052 19.9396C4.84524 19.6801 4.78372 19.3885 4.80268 19.0964C4.82163 18.8043 4.92033 18.5231 5.08803 18.2832L16.288 2.28323C16.4832 2.00449 16.7623 1.79525 17.0845 1.68591C17.4068 1.57657 17.7555 1.57283 18.08 1.67523V1.67363Z" fill="#3F3F46"/>
<circle cx="24" cy="22" r="6" fill="#A6F6F1"/>
<path d="M22 22L23.3333 23.3333L26 20.6667M30 22C30 22.7879 29.8448 23.5681 29.5433 24.2961C29.2417 25.0241 28.7998 25.6855 28.2426 26.2426C27.6855 26.7998 27.0241 27.2417 26.2961 27.5433C25.5681 27.8448 24.7879 28 24 28C23.2121 28 22.4319 27.8448 21.7039 27.5433C20.9759 27.2417 20.3145 26.7998 19.7574 26.2426C19.2002 25.6855 18.7583 25.0241 18.4567 24.2961C18.1552 23.5681 18 22.7879 18 22C18 20.4087 18.6321 18.8826 19.7574 17.7574C20.8826 16.6321 22.4087 16 24 16C25.5913 16 27.1174 16.6321 28.2426 17.7574C29.3679 18.8826 30 20.4087 30 22Z" stroke="#3F3F46" stroke-width="2" stroke-linecap="round" stroke-linejoin="round"/>
</svg>
